<?xml version="1.0" encoding="utf-8"?>
<!-- Generator: Adobe Illustrator 23.0.3, SVG Export Plug-In . SVG Version: 6.00 Build 0)  -->
<svg version="1.1" xmlns="http://www.w3.org/2000/svg" xmlns:xlink="http://www.w3.org/1999/xlink" x="0px" y="0px"
	 viewBox="0 0 1437.8 997.4" style="enable-background:new 0 0 1437.8 997.4;" xml:space="preserve">
<style type="text/css">
	.st0{fill:#1D365E;}
	.st1{fill:none;stroke:#4C7EF3;stroke-width:5;stroke-miterlimit:10;}
	.st2{fill:none;stroke:#4C7EF3;stroke-width:3;stroke-miterlimit:10;}
	.st3{fill:#4C7EF3;}
</style>
<g id="Layer_1">
</g>
<g id="Layer_2">
	<path class="st0" d="M558.7,669.2H139.2c-12.7,0-22.9-10.3-22.9-22.9V301c0-12.7,10.3-22.9,22.9-22.9h419.5
		c12.7,0,22.9,10.3,22.9,22.9v345.3C581.6,658.9,571.4,669.2,558.7,669.2z"/>
	<path class="st0" d="M1163.8,669.4H651.1c-12.7,0-22.9-10.3-22.9-22.9v-86.9c0-12.7,10.3-22.9,22.9-22.9h512.7
		c12.7,0,22.9,10.3,22.9,22.9v86.9C1186.7,659.1,1176.4,669.4,1163.8,669.4z"/>
	<circle class="st1" cx="313.6" cy="355.4" r="26.8"/>
	<circle class="st1" cx="485.3" cy="355.4" r="26.8"/>
	<circle class="st1" cx="485.3" cy="583.9" r="26.8"/>
	<circle class="st1" cx="313.6" cy="585" r="26.8"/>
	<circle class="st1" cx="171.9" cy="470" r="26.8"/>
	<line class="st2" x1="313.4" y1="399.7" x2="313.4" y2="534.8"/>
	<line class="st2" x1="340.5" y1="390.5" x2="457.7" y2="542.9"/>
	<line class="st2" x1="484.9" y1="399.7" x2="484.9" y2="534.8"/>
	<line class="st2" x1="206.3" y1="500.5" x2="275.8" y2="556.7"/>
	<line class="st2" x1="205.9" y1="439.9" x2="275.8" y2="384.1"/>
	<line class="st2" x1="354.4" y1="352.4" x2="443.3" y2="353.2"/>
	<line class="st2" x1="353.6" y1="584.4" x2="442.9" y2="584.4"/>
	<polyline class="st2" points="303.7,518 313.3,535.9 322.9,517.9 	"/>
	<polyline class="st2" points="425.3,594.2 443.2,584.5 425.2,575 	"/>
	<polyline class="st2" points="255.4,552.8 275.4,556 267,537.4 	"/>
	<polyline class="st2" points="425.5,363.1 443.4,353.5 425.4,343.9 	"/>
	<polyline class="st2" points="494.5,417.3 484.9,399.4 475.3,417.4 	"/>
	<polyline class="st2" points="440.1,536 458.6,544.4 455.4,524.3 	"/>
	<polyline class="st2" points="267.1,403.2 275.4,384.7 255.3,388 	"/>
	<g>
		<path class="st3" d="M314.4,366.5h-9.1v-24h8.2c5.5,0,9.8,1.1,9.8,6.1c0,2.4-1.3,3.8-3.1,4.9c2.5,1.1,3.8,3.1,3.8,6
			C324,364.5,320,366.5,314.4,366.5z M312.5,345.9h-2.3v6.2h3.8c2.8,0,4.4-0.6,4.4-2.8C318.4,346.1,316.2,345.9,312.5,345.9z
			 M314,355.3h-3.8v7.8h3.5c3.4,0,5.3-0.8,5.3-3.8C319.1,356.2,317.5,355.3,314,355.3z"/>
	</g>
	<g>
		<path class="st3" d="M316.4,596.3c-6.5,0-11.9-4.5-11.9-12.5c0-7.6,5.2-12.4,12-12.4c2.4,0,5.1,0.4,7.3,2.3l-1.3,3.5
			c-1.4-1.2-2.9-1.9-5.7-1.9c-4.2,0-7.2,3.3-7.2,8.5c0,5.7,3,8.6,7.2,8.6c2.1,0,4.2-0.5,5.8-1.8l1.2,3.5
			C321.2,596,318.8,596.3,316.4,596.3z"/>
	</g>
	<g>
		<path class="st3" d="M492.8,575.6h-10.3v5.9h9.9v3.6h-9.9v7.2l11.2,0.1l-0.2,3.5h-15.9v-24h15.6L492.8,575.6z"/>
	</g>
	<g>
		<path class="st3" d="M393.4,317.7c3.7,0,6.1,2.2,6.1,5.6v0.1c0,2.6-1.4,4.5-3.6,6.9l-5.8,6.2h9.5l-0.2,2.1h-12l-0.3-2.2l7.1-7.8
			c1.6-1.8,2.6-3.3,2.7-4.9v-0.1c0-2.3-1.3-3.6-3.6-3.6c-1.7,0-3.4,0.5-4.6,1.7l-0.8-2C389,318.4,390.8,317.7,393.4,317.7z"/>
	</g>
	<g>
		<path class="st3" d="M776.3,329.7h-2.9v-24.8h2.9V329.7z"/>
		<path class="st3" d="M795.8,318.7v10.9H793v-9.1c0-4.7-0.2-7.1-3.6-7.1c-3.1,0-5.2,2.2-5.7,3.8v12.4H781v-13.8l-0.1-4.4h2.4
			l0.2,2.7c1.4-1.9,4-3.1,6.5-3.1C794,311,795.8,313.6,795.8,318.7z"/>
		<path class="st3" d="M810.6,323.6c0,3.4,0.4,4.1,2.6,4.1c0.3,0,1-0.1,2.3-0.2l0.2,2.2c-2.1,0.2-2.6,0.2-3.2,0.2
			c-4.4,0-4.8-2.2-4.8-7.7v-8.9H805l0.2-1.9h2.5l0.7-5.9l2.1-0.2v6.1h4.8v1.9h-4.8V323.6z"/>
		<path class="st3" d="M820.8,329.7H818v-24.7l2.8-0.3v9.3c1.5-1.9,3.7-2.9,6.5-2.9c3.8,0,5.5,2.9,5.5,7.6v11H830v-10.2
			c0-4.1-0.6-6.1-3.7-6.1c-2.8,0-5.1,2.1-5.6,3.9V329.7z"/>
		<path class="st3" d="M844.2,330.1c-5.2,0-8.4-3.7-8.4-9.6c0-5.4,3.3-9.4,8-9.5c4.5,0,7.3,3.4,7.3,8.8c0,0.3,0,1,0,1.3h-12.5
			c0,4.1,2.4,6.6,5.6,6.6c2.6,0,4.5-1,5.8-1.8l0.8,2C849.4,329.2,847.1,330.1,844.2,330.1z M838.8,319.1h9.7c0-3.9-1.9-5.8-4.7-5.8
			C841.1,313.3,839.1,315.5,838.8,319.1z"/>
		<path class="st3" d="M862.8,311.4l4,14.5l4.8-14.5h3.3l4.6,14.4l3.9-14.4h2.8l-5.4,18.2h-2.8l-4.9-15.4l-5.1,15.4h-2.8l-5.4-18.2
			H862.8z"/>
		<path class="st3" d="M896.4,330.1c-5.5,0-8.6-4.2-8.6-9.5c0-5.2,3.1-9.6,8.6-9.6c5.6,0,8.4,4.3,8.4,9.6
			C904.8,325.6,901.9,330.1,896.4,330.1z M896.4,313.3c-3.9,0-5.7,3.6-5.7,7.3c0,3.7,1.8,7.2,5.8,7.2c3.9,0,5.5-3.5,5.5-7.2
			C902,316.7,900.5,313.3,896.4,313.3z"/>
		<path class="st3" d="M908.1,329.7v-14c0-1.4,0-2.8,0-4.2h2.3l0.2,3.2c1.3-2.3,3.2-3.2,5.3-3.2h0.5l0.2,2.5H916
			c-3.4,0-5.1,2.3-5.1,5v10.7H908.1z"/>
		<path class="st3" d="M931.1,324.8c-0.1,3.4-2.5,5.3-6,5.3c-2.8,0-5.2-0.9-6.3-1.7l0.7-2.1c0.7,0.4,2.7,1.5,5.2,1.5h0.3
			c2.1,0,3.4-1,3.6-2.9v-0.2c0-1.2-0.7-2.2-2.8-2.8l-2.4-0.7c-3.6-1-4.7-2.8-4.7-5c0-2.5,2-5.1,6.1-5.1c2.3,0,4.1,0.5,5.5,1.2
			l-0.6,2c-1-0.4-2.7-1-4.7-1s-3.5,1.1-3.5,2.9c0,1.1,0.6,2,2.6,2.5l2.5,0.7C929.5,320.1,931.1,321.7,931.1,324.8L931.1,324.8z"/>
		<path class="st3" d="M938.4,323.6c0,3.4,0.4,4.1,2.6,4.1c0.3,0,1-0.1,2.3-0.2l0.2,2.2c-2.1,0.2-2.6,0.2-3.2,0.2
			c-4.4,0-4.8-2.2-4.8-7.7v-8.9h-2.8l0.2-1.9h2.5l0.7-5.9l2.1-0.2v6.1h4.8v1.9h-4.8V323.6z"/>
		<path class="st3" d="M966.1,328.4c-1.2,1.1-3.1,1.7-4.9,1.7c-5.7,0-8.8-4.5-8.8-9.5c0-5,3.3-9.6,8.7-9.6c2.1,0,3.9,0.6,5,1.6
			l-0.7,2c-1.4-0.9-2.9-1.3-4.3-1.3c-3.3,0-5.9,3.1-5.9,7.3c0,4.2,2.4,7.2,6.1,7.2c1.6,0,3.1-0.6,4.1-1.4L966.1,328.4z"/>
		<path class="st3" d="M973.9,330.1c-3,0-5.5-1.6-5.5-5c0-4.8,4.6-5.4,9.3-6.1l1.8-0.2v-2.1c0-2.2-1.1-3.4-3.6-3.4
			c-2,0-4.2,0.5-5.7,1.2l-0.8-2.2c1.4-0.7,3.8-1.4,6.4-1.4c3.6,0,6.4,1.2,6.4,5.3v13.4H980l-0.4-2
			C978,329.5,975.8,330.1,973.9,330.1z M979.5,325.2v-4.5c0,0-1.6,0.2-1.7,0.2c-5.2,0.7-6.7,1.5-6.7,4c0,2,1.3,2.9,3,2.9
			C975.9,327.9,978.3,326.8,979.5,325.2z"/>
		<path class="st3" d="M998.4,324.8c-0.1,3.4-2.5,5.3-6,5.3c-2.8,0-5.2-0.9-6.3-1.7l0.7-2.1c0.7,0.4,2.7,1.5,5.2,1.5h0.3
			c2.1,0,3.4-1,3.6-2.9v-0.2c0-1.2-0.7-2.2-2.8-2.8l-2.4-0.7c-3.6-1-4.7-2.8-4.7-5c0-2.5,2-5.1,6.1-5.1c2.3,0,4.1,0.5,5.5,1.2
			l-0.6,2c-1-0.4-2.7-1-4.7-1s-3.5,1.1-3.5,2.9c0,1.1,0.6,2,2.6,2.5l2.5,0.7C996.8,320.1,998.4,321.7,998.4,324.8L998.4,324.8z"/>
		<path class="st3" d="M1009.5,330.1c-5.2,0-8.4-3.7-8.4-9.6c0-5.4,3.3-9.4,8-9.5c4.5,0,7.3,3.4,7.3,8.8c0,0.3,0,1,0,1.3H1004
			c0,4.1,2.4,6.6,5.6,6.6c2.6,0,4.5-1,5.8-1.8l0.8,2C1014.7,329.2,1012.4,330.1,1009.5,330.1z M1004.1,319.1h9.7
			c0-3.9-1.9-5.8-4.7-5.8C1006.4,313.3,1004.4,315.5,1004.1,319.1z"/>
		<path class="st3" d="M1022.1,329.9c-1.5,0-2.2-1.1-2.2-2.2s0.7-2.2,2.2-2.2s2.2,1.1,2.2,2.2S1023.6,329.9,1022.1,329.9z"/>
		<path class="st3" d="M1030.3,329.9c-1.5,0-2.2-1.1-2.2-2.2s0.7-2.2,2.2-2.2s2.2,1.1,2.2,2.2S1031.8,329.9,1030.3,329.9z"/>
		<path class="st3" d="M1038.5,329.9c-1.5,0-2.2-1.1-2.2-2.2s0.7-2.2,2.2-2.2s2.2,1.1,2.2,2.2S1040,329.9,1038.5,329.9z"/>
		<path class="st3" d="M763.6,364.6h2.4c-2.4,4.4-3.8,9.3-3.8,14.4c0,4.7,1.5,10.1,3.8,14.2h-2.4c-2.3-4-4.1-9.1-4.1-14.2
			C759.5,373.8,761.1,369.1,763.6,364.6z"/>
		<path class="st3" d="M785.6,364.8h3.1l-9.1,24.8h-3.2l-9.1-24.8h3.2l7.5,21.6C778.1,386.4,783,372.2,785.6,364.8z"/>
		<path class="st3" d="M790.2,378.9h6.4v-7h2.2v7h6.1v2.2h-6.2v7.2h-2.2v-7.2h-6.4V378.9z"/>
		<path class="st3" d="M822.8,378.2h-11v8.9H824l-0.3,2.6h-14.9v-24.8h14.6l-0.2,2.5h-11.5v8.2h11V378.2z"/>
		<path class="st3" d="M827,393.3c2.3-4.2,3.8-9.5,3.8-14.2c0-5.1-1.4-10-3.8-14.4h2.5c2.4,4.5,4.1,9.2,4.1,14.5
			c0,5.1-1.8,10.2-4.1,14.2H827z"/>
		<path class="st3" d="M848,382.5c0,4,0.1,5.2,2,5.2c0.4,0,0.6,0,1.5-0.1l0.2,2.2c-1,0.2-1.6,0.2-1.9,0.2c-4.5,0-4.6-2.1-4.6-8.1
			v-17l2.8-0.3V382.5z"/>
		<path class="st3" d="M861.8,390.1c-5.5,0-8.6-4.2-8.6-9.5c0-5.2,3.1-9.6,8.6-9.6c5.6,0,8.4,4.3,8.4,9.6
			C870.2,385.6,867.2,390.1,861.8,390.1z M861.8,373.3c-3.9,0-5.7,3.6-5.7,7.3c0,3.7,1.8,7.2,5.8,7.2c3.9,0,5.5-3.5,5.5-7.2
			C867.3,376.7,865.9,373.3,861.8,373.3z"/>
		<path class="st3" d="M881.3,390.1c-5.5,0-8.6-4.2-8.6-9.5c0-5.2,3.1-9.6,8.6-9.6c5.6,0,8.4,4.3,8.4,9.6
			C889.8,385.6,886.8,390.1,881.3,390.1z M881.3,373.3c-3.9,0-5.7,3.6-5.7,7.3c0,3.7,1.8,7.2,5.8,7.2c3.9,0,5.5-3.5,5.5-7.2
			C886.9,376.7,885.4,373.3,881.3,373.3z"/>
		<path class="st3" d="M893,371.4h2.6l0.2,2.4c1.4-1.9,3.2-2.9,5.6-2.9c5.4,0,7.6,4.5,7.6,9.8c0,4.9-2.9,9.3-7.6,9.3
			c-2.3,0-4.4-1-5.6-3.1v9.9l-2.8,0.4V371.4z M901,387.7c3.8,0,5.2-3.8,5.2-7.1s-1.4-7.2-5.2-7.2s-5.2,3.2-5.2,7.2
			C895.8,384.5,897.2,387.7,901,387.7z"/>
		<path class="st3" d="M923,368.1h-2.8v-3.3h2.8V368.1z M923,389.7h-2.8v-18.2h2.8V389.7z"/>
		<path class="st3" d="M931.2,383.6c0,3.4,0.4,4.1,2.6,4.1c0.3,0,1-0.1,2.3-0.2l0.2,2.2c-2.1,0.2-2.6,0.2-3.2,0.2
			c-4.4,0-4.8-2.2-4.8-7.7v-8.9h-2.8l0.2-1.9h2.5l0.7-5.9l2.1-0.2v6.1h4.8v1.9h-4.8V383.6z"/>
		<path class="st3" d="M946.4,390.1c-5.2,0-8.4-3.7-8.4-9.6c0-5.4,3.3-9.4,8-9.5c4.5,0,7.3,3.4,7.3,8.8c0,0.3,0,1,0,1.3h-12.5
			c0,4.1,2.4,6.6,5.6,6.6c2.6,0,4.5-1,5.8-1.8l0.8,2C951.6,389.2,949.3,390.1,946.4,390.1z M941,379.1h9.7c0-3.9-1.9-5.8-4.7-5.8
			C943.3,373.3,941.3,375.5,941,379.1z"/>
		<path class="st3" d="M956.7,389.7v-14c0-1.4,0-2.8,0-4.2h2.3l0.2,3.2c1.3-2.3,3.2-3.2,5.3-3.2h0.5l0.2,2.5h-0.7
			c-3.4,0-5.1,2.3-5.1,5v10.7H956.7z"/>
		<path class="st3" d="M972.5,390.1c-3,0-5.5-1.6-5.5-5c0-4.8,4.6-5.4,9.3-6.1l1.8-0.2v-2.1c0-2.2-1.1-3.4-3.6-3.4
			c-2,0-4.2,0.5-5.7,1.2l-0.8-2.2c1.4-0.7,3.8-1.4,6.4-1.4c3.6,0,6.4,1.2,6.4,5.3v13.4h-2.3l-0.4-2
			C976.6,389.4,974.4,390.1,972.5,390.1z M978.1,385.2v-4.5c0,0-1.6,0.2-1.7,0.2c-5.2,0.7-6.7,1.5-6.7,4c0,2,1.3,2.9,3,2.9
			C974.5,387.9,976.9,386.8,978.1,385.2z"/>
		<path class="st3" d="M988.8,383.6c0,3.4,0.4,4.1,2.6,4.1c0.3,0,1-0.1,2.3-0.2l0.2,2.2c-2.1,0.2-2.6,0.2-3.2,0.2
			c-4.4,0-4.8-2.2-4.8-7.7v-8.9h-2.8l0.2-1.9h2.5l0.7-5.9l2.1-0.2v6.1h4.8v1.9h-4.8V383.6z"/>
		<path class="st3" d="M999.8,368.1H997v-3.3h2.8V368.1z M999.8,389.7H997v-18.2h2.8V389.7z"/>
		<path class="st3" d="M1011.9,390.1c-5.5,0-8.6-4.2-8.6-9.5c0-5.2,3.1-9.6,8.6-9.6c5.6,0,8.4,4.3,8.4,9.6
			C1020.3,385.6,1017.4,390.1,1011.9,390.1z M1011.9,373.3c-3.9,0-5.7,3.6-5.7,7.3c0,3.7,1.8,7.2,5.8,7.2c3.9,0,5.5-3.5,5.5-7.2
			C1017.5,376.7,1016,373.3,1011.9,373.3z"/>
		<path class="st3" d="M1038.3,378.7v10.9h-2.8v-9.1c0-4.7-0.2-7.1-3.6-7.1c-3.1,0-5.2,2.2-5.7,3.8v12.4h-2.8v-13.8l-0.1-4.4h2.4
			l0.2,2.7c1.4-1.9,4-3.1,6.5-3.1C1036.6,371,1038.3,373.6,1038.3,378.7z"/>
		<path class="st3" d="M1054.2,384.8c-0.1,3.4-2.5,5.3-6,5.3c-2.8,0-5.2-0.9-6.3-1.7l0.7-2.1c0.7,0.4,2.7,1.5,5.2,1.5h0.3
			c2.1,0,3.4-1,3.6-2.9v-0.2c0-1.2-0.7-2.2-2.8-2.8l-2.4-0.7c-3.6-1-4.7-2.8-4.7-5c0-2.5,2-5.1,6.1-5.1c2.3,0,4.1,0.5,5.5,1.2
			l-0.6,2c-1-0.4-2.7-1-4.7-1s-3.5,1.1-3.5,2.9c0,1.1,0.6,2,2.6,2.5l2.5,0.7C1052.6,380.1,1054.2,381.7,1054.2,384.8L1054.2,384.8z"
			/>
		<path class="st3" d="M910.5,430.5l-3.9-6.3l-4.2,6.3h-5.1l6.2-8.9l-5.8-8.7h5.1l3.8,6.1l4.1-6.1h4.9l-6,8.6l6.2,9H910.5z"/>
		<path class="st3" d="M646.5,446.2h2.4c-2.4,4.4-3.8,9.3-3.8,14.4c0,4.7,1.5,10.1,3.8,14.2h-2.4c-2.3-4-4.1-9.1-4.1-14.2
			C642.5,455.4,644.1,450.7,646.5,446.2z"/>
		<path class="st3" d="M655.7,464.1c0,4,0.1,5.2,2,5.2c0.4,0,0.6,0,1.5-0.1l0.2,2.2c-1,0.2-1.6,0.2-1.9,0.2c-4.5,0-4.6-2.1-4.6-8.1
			v-17l2.8-0.3V464.1z"/>
		<path class="st3" d="M669.5,471.7c-5.5,0-8.6-4.2-8.6-9.5c0-5.2,3.1-9.6,8.6-9.6c5.6,0,8.4,4.3,8.4,9.6
			C677.9,467.2,675,471.7,669.5,471.7z M669.5,454.9c-3.9,0-5.7,3.6-5.7,7.3c0,3.7,1.8,7.2,5.8,7.2c3.9,0,5.5-3.5,5.5-7.2
			C675,458.3,673.6,454.9,669.5,454.9z"/>
		<path class="st3" d="M684.2,477.1h3.4c5.7,0,6.4-2.6,6.4-7.2v-1.6c-1.2,1.7-2.8,3-5.6,3c-5.4,0-7.8-4.9-7.8-9c0-5.2,2.5-9.6,8-9.6
			c2.4,0,4.1,1,5.5,2.9V453h2.7v16.9c0,4.7-0.7,9.7-9.2,9.7h-3L684.2,477.1z M694,462.7v-1.4c0-3.5-1.5-6.4-5.3-6.4
			c-3.9,0-5.4,3.9-5.4,7.1c0,3.1,1.6,6.8,5.4,6.8C692.6,468.9,694,466,694,462.7z"/>
		<path class="st3" d="M723.7,446.4h3.1l-9.1,24.8h-3.2l-9.1-24.8h3.2l7.5,21.6C716.2,468,721.1,453.8,723.7,446.4z"/>
		<path class="st3" d="M728.2,474.9c2.3-4.2,3.8-9.5,3.8-14.2c0-5.1-1.4-10-3.8-14.4h2.5c2.4,4.5,4.1,9.2,4.1,14.5
			c0,5.1-1.8,10.2-4.1,14.2H728.2z"/>
		<path class="st3" d="M749.9,465.2c0,3.4,0.4,4.1,2.6,4.1c0.3,0,1-0.1,2.3-0.2l0.2,2.2c-2.1,0.2-2.6,0.2-3.2,0.2
			c-4.4,0-4.8-2.2-4.8-7.7V455h-2.8l0.2-1.9h2.5l0.7-5.9l2.1-0.2v6.1h4.8v1.9h-4.8V465.2z"/>
		<path class="st3" d="M765.3,471.7c-5.5,0-8.6-4.2-8.6-9.5c0-5.2,3.1-9.6,8.6-9.6c5.6,0,8.4,4.3,8.4,9.6
			C773.7,467.2,770.7,471.7,765.3,471.7z M765.3,454.9c-3.9,0-5.7,3.6-5.7,7.3c0,3.7,1.8,7.2,5.8,7.2c3.9,0,5.5-3.5,5.5-7.2
			C770.8,458.3,769.4,454.9,765.3,454.9z"/>
		<path class="st3" d="M783.9,453h2.8v12.2c0,3.3,1.9,4.2,4.6,4.2c2.6,0,4.5-1,4.5-4.2V453h2.8v12.1c0,4.8-3.4,6.5-7.3,6.5
			s-7.3-1.7-7.3-6.5V453z"/>
		<path class="st3" d="M802.4,453h2.6l0.2,2.4c1.4-1.9,3.2-2.9,5.6-2.9c5.4,0,7.6,4.5,7.6,9.8c0,4.9-2.9,9.3-7.6,9.3
			c-2.3,0-4.4-1-5.6-3.1v9.9l-2.8,0.4V453z M810.4,469.3c3.8,0,5.2-3.8,5.2-7.1s-1.4-7.2-5.2-7.2s-5.2,3.2-5.2,7.2
			C805.1,466.1,806.6,469.3,810.4,469.3z"/>
		<path class="st3" d="M828.8,471.7c-4.9,0-7.8-4-7.8-9.7c0-5.2,3.1-9.3,7.7-9.3c2.4,0,4.8,1.2,5.7,3.1v-9.2l2.8-0.3v25.1h-2.5
			l-0.3-2.9C833.3,470.3,831.3,471.7,828.8,471.7z M828.9,469.2c3.7,0,5.5-3.2,5.5-7.1c0-3.9-1.6-7.1-5.5-7.1c-3.7,0-5.1,3.7-5.1,7
			C823.8,465.6,825.2,469.2,828.9,469.2z"/>
		<path class="st3" d="M846.1,471.7c-3,0-5.5-1.6-5.5-5c0-4.8,4.6-5.4,9.3-6.1l1.8-0.2v-2.1c0-2.2-1.1-3.4-3.6-3.4
			c-2,0-4.2,0.5-5.7,1.2l-0.8-2.2c1.4-0.7,3.8-1.4,6.4-1.4c3.6,0,6.4,1.2,6.4,5.3v13.4h-2.3l-0.4-2
			C850.2,471.1,848,471.7,846.1,471.7z M851.7,466.8v-4.5c0,0-1.6,0.2-1.7,0.2c-5.2,0.7-6.7,1.5-6.7,4c0,2,1.3,2.9,3,2.9
			S850.5,468.4,851.7,466.8z"/>
		<path class="st3" d="M862.4,465.2c0,3.4,0.4,4.1,2.6,4.1c0.3,0,1-0.1,2.3-0.2l0.2,2.2c-2.1,0.2-2.6,0.2-3.2,0.2
			c-4.4,0-4.8-2.2-4.8-7.7V455h-2.8l0.2-1.9h2.5l0.7-5.9l2.1-0.2v6.1h4.8v1.9h-4.8V465.2z"/>
		<path class="st3" d="M877.6,471.7c-5.2,0-8.4-3.7-8.4-9.6c0-5.4,3.3-9.4,8-9.5c4.5,0,7.3,3.4,7.3,8.8c0,0.3,0,1,0,1.3h-12.5
			c0,4.1,2.4,6.6,5.6,6.6c2.6,0,4.5-1,5.8-1.8l0.8,2C882.8,470.8,880.5,471.7,877.6,471.7z M872.2,460.7h9.7c0-3.9-1.9-5.8-4.7-5.8
			C874.5,454.9,872.5,457.1,872.2,460.7z"/>
		<path class="st3" d="M897.8,471.3H895v-24.7l2.8-0.3v9.3c1.5-1.9,3.7-2.9,6.5-2.9c3.8,0,5.5,2.9,5.5,7.6v11H907V461
			c0-4.1-0.6-6.1-3.7-6.1c-2.8,0-5.1,2.1-5.6,3.9V471.3z"/>
		<path class="st3" d="M921.2,471.7c-5.2,0-8.4-3.7-8.4-9.6c0-5.4,3.3-9.4,8-9.5c4.5,0,7.3,3.4,7.3,8.8c0,0.3,0,1,0,1.3h-12.5
			c0,4.1,2.4,6.6,5.6,6.6c2.6,0,4.5-1,5.8-1.8l0.8,2C926.4,470.8,924.1,471.7,921.2,471.7z M915.8,460.7h9.7c0-3.9-1.9-5.8-4.7-5.8
			C918.1,454.9,916.1,457.1,915.8,460.7z"/>
		<path class="st3" d="M936.5,471.7c-3,0-5.5-1.6-5.5-5c0-4.8,4.6-5.4,9.3-6.1l1.8-0.2v-2.1c0-2.2-1.1-3.4-3.6-3.4
			c-2,0-4.2,0.5-5.7,1.2L932,454c1.4-0.7,3.8-1.4,6.4-1.4c3.6,0,6.4,1.2,6.4,5.3v13.4h-2.3l-0.4-2
			C940.6,471.1,938.4,471.7,936.5,471.7z M942.1,466.8v-4.5c0,0-1.6,0.2-1.7,0.2c-5.2,0.7-6.7,1.5-6.7,4c0,2,1.3,2.9,3,2.9
			C938.5,469.5,940.9,468.4,942.1,466.8z"/>
		<path class="st3" d="M948.9,453h2.6l0.2,2.4c1.4-1.9,3.2-2.9,5.6-2.9c5.4,0,7.6,4.5,7.6,9.8c0,4.9-2.9,9.3-7.6,9.3
			c-2.3,0-4.4-1-5.6-3.1v9.9l-2.8,0.4V453z M956.9,469.3c3.8,0,5.2-3.8,5.2-7.1s-1.4-7.2-5.2-7.2s-5.2,3.2-5.2,7.2
			C951.6,466.1,953.1,469.3,956.9,469.3z"/>
		<path class="st3" d="M983,471.7c-5.2,0-8.4-3.7-8.4-9.6c0-5.4,3.3-9.4,8-9.5c4.5,0,7.3,3.4,7.3,8.8c0,0.3,0,1,0,1.3h-12.5
			c0,4.1,2.4,6.6,5.6,6.6c2.6,0,4.5-1,5.8-1.8l0.8,2C988.3,470.8,986,471.7,983,471.7z M977.6,460.7h9.7c0-3.9-1.9-5.8-4.7-5.8
			C979.9,454.9,977.9,457.1,977.6,460.7z"/>
		<path class="st3" d="M998.3,471.7c-3,0-5.5-1.6-5.5-5c0-4.8,4.6-5.4,9.3-6.1l1.8-0.2v-2.1c0-2.2-1.1-3.4-3.6-3.4
			c-2,0-4.2,0.5-5.7,1.2l-0.8-2.2c1.4-0.7,3.8-1.4,6.4-1.4c3.6,0,6.4,1.2,6.4,5.3v13.4h-2.3l-0.4-2
			C1002.4,471.1,1000.2,471.7,998.3,471.7z M1003.9,466.8v-4.5c0,0-1.6,0.2-1.7,0.2c-5.2,0.7-6.7,1.5-6.7,4c0,2,1.3,2.9,3,2.9
			C1000.3,469.5,1002.7,468.4,1003.9,466.8z"/>
		<path class="st3" d="M1023.7,470c-1.2,1.1-3.1,1.7-4.9,1.7c-5.7,0-8.8-4.5-8.8-9.5c0-5,3.3-9.6,8.7-9.6c2.1,0,3.9,0.6,5,1.6
			l-0.7,2c-1.4-0.9-2.9-1.3-4.3-1.3c-3.3,0-5.9,3.1-5.9,7.3c0,4.2,2.4,7.2,6.1,7.2c1.6,0,3.1-0.6,4.1-1.4L1023.7,470z"/>
		<path class="st3" d="M1029.2,471.3h-2.8v-24.7l2.8-0.3v9.3c1.5-1.9,3.7-2.9,6.5-2.9c3.8,0,5.5,2.9,5.5,7.6v11h-2.8V461
			c0-4.1-0.6-6.1-3.7-6.1c-2.8,0-5.1,2.1-5.6,3.9V471.3z"/>
		<path class="st3" d="M1055.5,449.7h-2.8v-3.3h2.8V449.7z M1055.5,471.3h-2.8V453h2.8V471.3z"/>
		<path class="st3" d="M1063.8,465.2c0,3.4,0.4,4.1,2.6,4.1c0.3,0,1-0.1,2.3-0.2l0.2,2.2c-2.1,0.2-2.6,0.2-3.2,0.2
			c-4.4,0-4.8-2.2-4.8-7.7V455h-2.8l0.2-1.9h2.5l0.7-5.9l2.1-0.2v6.1h4.8v1.9h-4.8V465.2z"/>
		<path class="st3" d="M1078.9,471.7c-5.2,0-8.4-3.7-8.4-9.6c0-5.4,3.3-9.4,8-9.5c4.5,0,7.3,3.4,7.3,8.8c0,0.3,0,1,0,1.3h-12.5
			c0,4.1,2.4,6.6,5.6,6.6c2.6,0,4.5-1,5.8-1.8l0.8,2C1084.2,470.8,1081.9,471.7,1078.9,471.7z M1073.5,460.7h9.7
			c0-3.9-1.9-5.8-4.7-5.8C1075.8,454.9,1073.8,457.1,1073.5,460.7z"/>
		<path class="st3" d="M1089.3,471.3v-14c0-1.4,0-2.8,0-4.2h2.3l0.2,3.2c1.3-2.3,3.2-3.2,5.3-3.2h0.5l0.2,2.5h-0.7
			c-3.4,0-5.1,2.3-5.1,5v10.7H1089.3z"/>
		<path class="st3" d="M1105.1,471.7c-3,0-5.5-1.6-5.5-5c0-4.8,4.6-5.4,9.3-6.1l1.8-0.2v-2.1c0-2.2-1.1-3.4-3.6-3.4
			c-2,0-4.2,0.5-5.7,1.2l-0.8-2.2c1.4-0.7,3.8-1.4,6.4-1.4c3.6,0,6.4,1.2,6.4,5.3v13.4h-2.3l-0.4-2
			C1109.2,471.1,1107,471.7,1105.1,471.7z M1110.7,466.8v-4.5c0,0-1.6,0.2-1.7,0.2c-5.2,0.7-6.7,1.5-6.7,4c0,2,1.3,2.9,3,2.9
			C1107.1,469.5,1109.5,468.4,1110.7,466.8z"/>
		<path class="st3" d="M1121.4,465.2c0,3.4,0.4,4.1,2.6,4.1c0.3,0,1-0.1,2.3-0.2l0.2,2.2c-2.1,0.2-2.6,0.2-3.2,0.2
			c-4.4,0-4.8-2.2-4.8-7.7V455h-2.8l0.2-1.9h2.5l0.7-5.9l2.1-0.2v6.1h4.8v1.9h-4.8V465.2z"/>
		<path class="st3" d="M1132.4,449.7h-2.8v-3.3h2.8V449.7z M1132.4,471.3h-2.8V453h2.8V471.3z"/>
		<path class="st3" d="M1144.5,471.7c-5.5,0-8.6-4.2-8.6-9.5c0-5.2,3.1-9.6,8.6-9.6c5.6,0,8.4,4.3,8.4,9.6
			C1152.9,467.2,1150,471.7,1144.5,471.7z M1144.5,454.9c-3.9,0-5.7,3.6-5.7,7.3c0,3.7,1.8,7.2,5.8,7.2c3.9,0,5.5-3.5,5.5-7.2
			C1150,458.3,1148.6,454.9,1144.5,454.9z"/>
		<path class="st3" d="M1170.9,460.3v10.9h-2.8v-9.1c0-4.7-0.2-7.1-3.6-7.1c-3.1,0-5.2,2.2-5.7,3.8v12.4h-2.8v-13.8l-0.1-4.4h2.4
			l0.2,2.7c1.4-1.9,4-3.1,6.5-3.1C1169.2,452.6,1170.9,455.2,1170.9,460.3z"/>
	</g>
	<g>
		<path class="st3" d="M769.1,587.7c8.9,0,15.6,5.9,15.6,16.2c0,10.1-6.7,16.1-15.6,16.1c-8.9,0-15.6-5.9-15.6-16.1
			C753.5,593.7,760.2,587.7,769.1,587.7z M769.2,592.8c-6.1,0-9.1,4.6-9.1,11.2c0,6.6,3,11,9.1,11c6.1,0,9.2-4.4,9.2-11
			C778.4,597.4,775.3,592.8,769.2,592.8z"/>
		<path class="st3" d="M803.6,587.3h5.7c0,0-5.5,9.6-5.5,18.5c0,8.9,5.5,18.6,5.5,18.6h-5.7c-3-5-5.8-10.6-5.8-18.6
			C797.8,597.9,800.6,592.4,803.6,587.3z"/>
		<path class="st3" d="M826.5,587.3h5.7c0,0-5.5,9.6-5.5,18.5c0,8.9,5.5,18.6,5.5,18.6h-5.7c-3-5-5.8-10.6-5.8-18.6
			C820.7,597.9,823.5,592.4,826.5,587.3z"/>
		<path class="st3" d="M843.6,619.5l-11.8-31.1h6.4l8.3,23.4l7.9-23.4h6.2l-11.4,31.1H843.6z"/>
		<path class="st3" d="M861.9,605.3h9.1v-8.5h4.7v8.5h9.1v4.3h-9.1v8.6h-4.7v-8.6h-9.1V605.3z"/>
		<path class="st3" d="M908.5,593.1h-13.3v7.7H908v4.7h-12.8v9.3l14.4,0.2l-0.3,4.5h-20.6v-31.1H909L908.5,593.1z"/>
		<path class="st3" d="M915.9,624.4h-5.7c0,0,5.5-9.6,5.5-18.6c0-8.9-5.5-18.5-5.5-18.5h5.7c3,5,5.9,10.6,5.9,18.5
			C921.8,613.8,919,619.4,915.9,624.4z"/>
		<path class="st3" d="M941.9,610.6c0,3.5,0.3,4.7,3.6,4.7c1.1,0,1.3-0.1,1.3-0.1l0.3,4.4c0,0-1.2,0.3-3.2,0.3c-6.9,0-8-4.2-8-10
			v-22l6.1-0.4V610.6z"/>
		<path class="st3" d="M971.3,607.9c0,7-3.8,12-11.3,12c-7.4,0-11.3-5.1-11.3-12c0-7.1,3.8-12.1,11.3-12.1
			C967.5,595.8,971.3,600.8,971.3,607.9z M965.5,607.9c0-5.1-2.2-7.7-5.5-7.7c-3.2,0-5.4,2.6-5.4,7.7c0,5,2.2,7.6,5.4,7.6
			C963.3,615.5,965.5,612.9,965.5,607.9z"/>
		<path class="st3" d="M980.3,630l-0.4-4.7h2.4c6.5,0,9,0,9-7v-1.8c-1.1,1.6-2.8,3.1-6.5,3.1c-5.9,0-10.6-4.3-10.6-11.8
			c0-7.9,5.3-11.9,10.3-11.9h0c3.5,0,5.6,1.4,6.8,3.1v-2.2h6.1v21.4c0,8.3-3.2,11.9-14.1,11.9H980.3z M985.9,615.1
			c3.3,0,5.6-2.8,5.6-7.3c0-4.7-2.4-7.4-5.6-7.5h-0.1c-3.8,0-5.8,2.9-5.8,7.5c0,4.3,2.4,7.3,5.8,7.3H985.9z"/>
		<path class="st3" d="M1020.6,619.5l-11.8-31.1h6.4l8.3,23.4l7.9-23.4h6.2l-11.4,31.1H1020.6z"/>
		<path class="st3" d="M1052.5,624.4h-5.7c0,0,5.5-9.6,5.5-18.6c0-8.9-5.5-18.5-5.5-18.5h5.7c3,5,5.9,10.6,5.9,18.5
			C1058.3,613.8,1055.5,619.4,1052.5,624.4z"/>
	</g>
	<g>
		<path class="st3" d="M227,394.8v5.1h-2.3v-5.1h-9.2v-2.1l9-13.3h2.5v13.4h2.5l-0.2,2H227z M217.9,392.9h6.8v-10.3L217.9,392.9z"/>
	</g>
	<g>
		<path class="st3" d="M222.3,541.4c3.7,0,6.1,2.2,6.1,5.6v0.1c0,2.6-1.4,4.5-3.6,6.9l-5.8,6.2h9.5l-0.2,2.1h-12L216,560l7.1-7.8
			c1.6-1.8,2.6-3.3,2.7-4.9v-0.1c0-2.3-1.3-3.6-3.6-3.6c-1.7,0-3.4,0.5-4.6,1.7l-0.8-2C217.9,542.1,219.6,541.4,222.3,541.4z"/>
	</g>
	<g>
		<path class="st3" d="M396.1,598.7v20.4h-2.4v-17.9c-1.1,0.7-2,1.2-3,1.5l-0.5-2c1.2-0.5,2.6-1.3,3.7-2.1H396.1z"/>
	</g>
	<g>
		<path class="st3" d="M510.3,460.7H502c-0.1,2-0.1,4.5-0.2,6.4c1.1-0.7,2.2-1,3.3-1c4.1,0,6.2,2.8,6.2,6.2c0,4.1-2.8,6.8-7.4,6.8
			c-2.4,0-4.3-0.8-5.5-1.9l0.9-1.9c0.9,0.7,2.4,1.6,4.7,1.6c3,0,4.8-1.9,4.8-4.6c0-2.4-1.4-4.1-4.2-4.1c-1.3,0-2.4,0.4-3.2,1.3
			l-1.9-0.3l0.5-10.9h10.5L510.3,460.7z"/>
	</g>
	<g>
		<path class="st3" d="M410.3,444.8v-2c3.1,0,6.1-0.4,6.1-3.6c0-2.3-1.3-3.3-3.8-3.3c-1.9,0-3.5,0.6-4.6,1.5l-0.8-2
			c1.2-1,3.1-1.6,5.9-1.6c3,0,5.9,1.8,5.9,5.1c0,2.6-1.4,4.2-3.6,4.9c2.5,0.6,4.1,2.4,4.1,5.3c0,3.6-2.9,5.9-6.9,5.9
			c-2.7,0-4.6-0.8-5.3-1.6l0.8-2c1,0.8,2.5,1.5,4.5,1.5c2.7,0,4.5-1.4,4.5-3.9C417.1,445.3,414.1,444.8,410.3,444.8z"/>
	</g>
	<g>
		<path class="st3" d="M332.9,458.5c3.7,0,6.1,2.2,6.1,5.6v0.1c0,2.6-1.4,4.5-3.6,6.9l-5.8,6.2h9.5l-0.2,2.1h-12l-0.3-2.2l7.1-7.8
			c1.6-1.8,2.6-3.3,2.7-4.9v-0.1c0-2.3-1.3-3.6-3.6-3.6c-1.7,0-3.4,0.5-4.6,1.7l-0.8-2C328.5,459.2,330.3,458.5,332.9,458.5z"/>
	</g>
	<g>
		<path class="st3" d="M176.4,474.1h-7.1l-2.6,7.4h-4.9l0.6-2l8.1-22h4.7l7.9,22l0.7,2H179L176.4,474.1z M175.2,471l-2.4-8.1
			l-2.5,8.1H175.2z"/>
	</g>
	<g>
		<path class="st3" d="M484.6,366.7h-8v-24h6.5c9,0,15.1,3.3,15.1,12.1C498.3,362.6,492.7,366.7,484.6,366.7z M483.5,346.4h-1.9V363
			h3.3c5.4,0,8.4-2.9,8.4-8.2C493.3,348.5,490.1,346.4,483.5,346.4z"/>
	</g>
	<line class="st2" x1="629.1" y1="503.8" x2="1184.2" y2="503.8"/>
</g>
</svg>
